# xmcd
#
# Track frame offsets:
#	150
#	10780
#	23036
#	33724
#	44821
#	57297
#	67648
#	81300
#	90972
#	101024
#	110433
#	121398
#	132720
#	143750
#	153449
#	166326
#	177523
#	186692
#	197073
#	211537
#	220716
#	231287
#	240251
#	251867
#	261841
#	271986
#	279352
#	288525
#	301670
#	310855
#
# Disc length: 4258 seconds
#
# Revision: 1
# Processed by: cddbd v1.5.2PL0 Copyright (c) Steve Scherf et al.
# Submitted via: FairStars CD Ripper 1.90
#
DISCID=af10a01e
DTITLE=Various Artist - Rock and roll country style
DYEAR=2003
DGENRE=Country
TTITLE0=Jess Willard - I'm telling you
TTITLE1=Elva Carter and Pat Kingery and The Kentuckians - Two toned love
TTITLE2=Don Ford - Orange blossom special
TTITLE3=Pappy Tipton - Empty bottles and cigarette butts
TTITLE4=Hank the Drifter - Bill collectors blues
TTITLE5=Steve La Rue and His Saddle Mountain Boys - Style of lovin'
TTITLE6=Verlin Speeks - Mountain boy
TTITLE7=Billy Reed - Honky tonk mama
TTITLE8=Freddie Byrd - Somebody stole my love
TTITLE9=Harry Snider - Worry, worry, worry
TTITLE10=Charlie Parker - I bowed my head and cried
TTITLE11=Mary Jane Johnson - I'll never tell
TTITLE12=Lefty King - Ranger boogie
TTITLE13=Autry Inman - I wanna make love
TTITLE14=Tommy Vaughan - Don't make a fool out of me
TTITLE15=Rose and Cal Maddox - Gotta travel on
TTITLE16=Logan Valley Boys - Rock and roll country style
TTITLE17=Howard W Brady - Weary walkin' blues
TTITLE18=Rod Morris - Shape up ot ship out
TTITLE19=Pat Kingery - Volcano
TTITLE20=Larry Lee Phillipson - Bitter feelings
TTITLE21=Boots Faye - Tip toes
TTITLE22=Black Jack Wayne - What makes me hang around
TTITLE23=Shelby Cooper - Cry baby cry
TTITLE24=Begley Sister - If I'm easy to love
TTITLE25=Andy Morris - I need her love
TTITLE26=Country Cousins - My heart's huntin' a new home
TTITLE27=Fiddlin' Sisk - Don't say we're thru
TTITLE28=Peggy Upton - Prince charming
TTITLE29=Dale Berry - Hat with a bow on the back
EXTD=
EXTT0=
EXTT1=
EXTT2=
EXTT3=
EXTT4=
EXTT5=
EXTT6=
EXTT7=
EXTT8=
EXTT9=
EXTT10=
EXTT11=
EXTT12=
EXTT13=
EXTT14=
EXTT15=
EXTT16=
EXTT17=
EXTT18=
EXTT19=
EXTT20=
EXTT21=
EXTT22=
EXTT23=
EXTT24=
EXTT25=
EXTT26=
EXTT27=
EXTT28=
EXTT29=
PLAYORDER=
